<svg xmlns="http://www.w3.org/2000/svg" viewBox="0 0 38 57">
  <!-- Top-left: semi-circle pill -->
  <path fill="#a6c92e" d="M0 9.5A9.5 9.5 0 0 0 9.5 19H19V0H9.5A9.5 9.5 0 0 0 0 9.5z"/>
  <!-- Top-right: circle -->
  <path fill="#c3e645" d="M19 0v19h9.5a9.5 9.5 0 1 0 0-19H19z"/>
  <!-- Middle-left: semi-circle pill -->
  <path fill="#89ac18" d="M0 28.5A9.5 9.5 0 0 0 9.5 38H19V19H9.5A9.5 9.5 0 0 0 0 28.5z"/>
  <!-- Middle-right: circle -->
  <path fill="#bde041" d="M19 28.5a9.5 9.5 0 1 1 19 0 9.5 9.5 0 0 1-19 0z"/>
  <!-- Bottom-left: droplet -->
  <path fill="#6c8f03" d="M0 47.5a9.5 9.5 0 0 1 9.5-9.5H19v19H9.5A9.5 9.5 0 0 1 0 47.5z"/>
</svg>
